<svg width="478" height="518" viewBox="0 0 478 518" fill="none" xmlns="http://www.w3.org/2000/svg">
<path d="M445.255 34.1365C453.891 41.501 459.999 46.0197 459.999 57.7108C459.999 64.9516 460.177 69.3279 454.47 74.8022C450.724 78.3957 447.405 82.2348 443.753 85.738C438.316 90.954 411.147 93.5288 415.492 81.0232C420.752 65.8867 431.739 76.8949 431.739 87.7026C431.739 105.999 420.418 113.315 405.867 123.784C398.752 128.903 391.909 133.746 385.047 138.78C380.02 142.468 374.61 148.051 369.073 150.567C363.422 153.135 355.619 155.11 349.96 152.008C345.292 149.449 343.852 139.856 350.642 139.042C361.933 137.688 374.258 145.146 385.525 148.472C397.285 151.943 407.545 156.723 420.066 156.723C422.812 156.723 419.881 159.458 418.837 160.259C416.431 162.106 413.623 162.351 410.85 163.533C406.449 165.41 389.377 165.728 402.932 170.409C410.906 173.163 418.745 175.004 426.824 171.129C428.548 170.302 434.373 169.348 430.237 172.046C427.435 173.874 423.4 174.404 420.134 174.404C412.449 174.404 391.19 168.042 391.19 180.297C391.19 186.6 397.972 189.569 403.546 190.906C408.462 192.085 413.125 192.084 418.154 192.084C420.196 192.084 425.537 189.259 424.093 190.644C418.267 196.233 424.163 200.772 430.51 201.449C433.163 201.732 441.711 202.798 443.07 200.335C444.143 198.391 444.766 193.394 440.954 193.394C435.152 193.394 434.723 199.931 431.466 202.431C429.868 203.657 425.124 202.587 423.137 202.693C419.688 202.877 417.918 205.64 416.311 208.063C413.075 212.94 408.29 218.475 411.123 223.91C412.978 227.468 414.536 230.984 414.536 235.042C414.536 239.889 413.283 239.233 408.666 239.233C401.431 239.233 394.482 239.39 387.504 240.346C382.093 241.088 380.345 239.623 377.128 244.472C375.757 246.54 375.919 250.175 377.947 251.544C385.451 256.609 400.821 261.625 409.075 255.146C418.282 247.92 413.009 257.365 407.437 259.009C401.805 260.672 390.481 255.982 385.729 253.378C383.183 251.982 383.108 252.289 385.661 253.378C389.8 255.142 391.515 257.862 393.375 261.629C397.485 269.952 380.836 265.876 378.425 265.165C376.888 264.711 373.384 258.503 374.261 256.914C376.281 253.254 386.554 258.731 389.279 259.206C397.559 260.65 388.235 268.534 383.545 268.701C373.057 269.074 363.484 270.69 354.943 276.363C352.889 277.727 345.537 279.774 345.25 282.256C344.704 286.967 361.69 285.131 364.431 283.108C367.707 280.691 376.748 278.349 370.166 284.09C367.26 286.623 364.073 288.821 361.291 291.49C359.996 292.732 364.803 290.437 366.616 290.18C369.313 289.797 382.481 289.516 380.405 290.18C377.826 291.004 364.6 294.372 373.715 292.865C389.59 290.239 386.615 289.572 403.205 289.918C404.921 289.954 413.593 290.168 413.581 290.18C411.488 292.187 408.921 293.454 405.867 293.454C400.268 293.454 395.954 294.8 390.644 296.073C387.109 296.921 381.27 295.783 378.221 297.645C376.765 298.534 375.087 300.096 373.374 300.461C372.902 300.561 370.098 300.217 370.575 301.247C372.143 304.63 390.438 307.508 379.586 309.039C376.394 309.49 369.884 309.601 367.162 311.397C365.615 312.417 377.046 315.715 377.674 315.85C377.909 315.9 387.358 317.904 383.545 319.124C380.781 320.008 371.893 319.386 374.807 319.386C378.282 319.386 394.669 322.275 390.235 324.035C385.927 325.745 381.83 326.979 377.674 329.077C374.256 330.804 370.302 332.705 370.302 336.543C370.302 341.439 370.517 344.241 365.114 346.234C363.433 346.854 359.745 347.45 358.97 348.854C357.16 352.134 356.86 353.055 353.714 355.402C349.247 358.735 344.734 358.183 339.584 360.379C335.058 362.308 327.784 363.347 332.757 369.481C336.919 374.614 346.175 376.676 352.417 378.387C354.366 378.921 356.126 380.679 358.493 380.679C361.837 380.679 351.803 380.679 348.458 380.679C340.281 380.679 333.983 380.413 326.614 383.626C323.762 384.87 318.737 384.773 315.555 385.328C311.287 386.073 304.925 385.874 300.674 385.132C298.67 384.783 292.692 384.001 291.732 387.227C291.282 388.738 292.884 394.199 292.619 394.562C291.077 396.675 292.253 399.628 290.161 401.634C288.346 403.376 285.57 404.205 283.677 406.021C276.706 412.709 271.124 419.71 265.86 427.566C258.287 438.866 251.796 452.266 249.818 465.547C248.459 474.675 243.561 489.317 250.569 497.961C257.039 505.941 265.753 488.248 266.816 483.489C268.92 474.068 268.653 463.221 267.02 453.825C266.017 448.048 258.151 443.505 252.617 443.151C244.587 442.637 236.703 436.6 229.066 434.311C223.038 432.504 219.105 437.197 213.024 431.364C205.92 424.548 201.549 433.351 194.594 433.721C186.105 434.174 157.133 430.49 156.503 418.398C156.294 414.398 155.894 404.415 158.414 401.307C162.664 396.066 164.659 392.718 166.947 386.573C173.693 368.453 152.654 368.062 141.144 374.196C137.69 376.037 128.316 372.528 130.973 367.713C132.696 364.589 133.374 365.966 131.314 362.409C129.972 360.092 128.265 359.149 125.785 358.021C121.553 356.099 112.336 358.87 110.972 352.979C109.68 347.404 103.198 346.009 98.7525 343.877C93.1476 341.189 87.7306 338.83 82.2329 335.953C76.6144 333.013 76.5957 329.301 72.6761 325.541C67.8583 320.92 63.9063 319.256 57.5218 317.028C56.4961 316.671 47.2505 312.874 49.0572 312.379C52.0529 311.558 58.9294 313.213 61.8906 314.409C69.8693 317.632 91.0048 312.103 82.0964 301.116C79.5575 297.984 76.6354 296.143 76.6354 291.686C76.6354 287.001 81.5515 287.897 84.6904 285.203C88.3628 282.051 94.6858 281.667 99.3669 281.667C105.288 281.667 110.288 284.024 115.955 284.024C122.71 284.024 128.837 282.846 135.614 282.846C143.783 282.846 151.952 282.846 160.121 282.846C165.558 282.846 173.76 284.015 171.521 276.035C170.181 271.26 162.27 267.224 157.186 270.011C154.708 271.369 154.63 278.691 156.503 280.488C158.414 282.321 164.005 284.746 166.879 283.959C174.008 282.005 163.115 275.929 160.189 275.773C154.795 275.486 149.787 272.237 144.216 272.237C129.939 272.237 116.22 268.701 101.824 268.701C98.7426 268.701 95.0008 269.276 91.9945 268.636C89.8125 268.17 85.2736 265.014 88.9227 263.069C93.2461 260.765 105.988 260.625 105.988 267.457C105.988 273.665 90.4284 280.29 90.1514 275.773C89.5891 266.602 111.768 272.464 116.228 268.963C121.367 264.93 124.139 264.313 125.716 257.503C127.27 250.798 118.956 246.695 116.228 242.245C109.835 231.82 92.563 225.596 82.8473 218.606C80.2484 216.736 76.9639 213.948 73.6318 213.367C70.6856 212.853 64.4244 212.417 62.1637 210.682C55.99 205.944 41.5679 210.281 47.8285 219.719C51.1051 224.658 63.6636 225.279 68.0343 221.552C72.7612 217.522 76.9046 213.875 82.779 211.206C87.4332 209.091 118.46 209.937 108.582 201.514C102.766 196.555 92.6089 200.568 92.6089 190.906C92.6089 186.27 93.7985 174.898 87.6939 173.225C81.8643 171.627 75.3869 168.804 69.263 168.51C60.068 168.069 51.2193 168.426 42.0944 167.331C36.6103 166.674 30.9213 166.525 25.5065 165.563C23.3483 165.18 13.8305 164.974 20.1138 164.974C25.1447 164.974 31.6495 165.717 36.5651 166.742C42.6973 168.021 48.1793 166.153 54.2452 166.153C59.3674 166.153 67.0049 165.107 71.7204 163.533C75.1423 162.392 78.899 162.302 82.2329 160.848C86.9366 158.797 92.6089 155.149 92.6089 149.651C92.6089 144.113 98.4401 142.708 103.053 143.692C105.899 144.298 108.747 147.093 109.538 149.913C110.82 154.479 100.62 156.251 97.5238 157.312C94.6715 158.29 91.9618 157.877 89.537 156.068C84.9348 152.634 95.192 150.544 98.0699 149.913C107.062 147.941 112.269 152.938 112.269 141.989C112.269 137.948 105.044 129.601 106.398 126.076C108.743 119.971 112.526 115.986 112.269 109.312C111.841 98.2284 100.359 86.5164 105.852 75.3915C109.547 67.9086 109.262 60.446 116.501 54.764C119.453 52.4469 122.286 50.0088 125.238 47.6917C127.932 45.5778 131.684 41.8163 134.386 40.292C139.54 37.3833 142.987 29.1336 142.987 23.5935C142.987 17.4623 127.414 15.4264 127.013 22.3493C126.669 28.3026 135.021 35.0774 138.686 39.3752C143.913 45.5033 143.426 52.8121 147.287 59.4789C149.915 64.0153 152.713 68.8872 155.001 73.0341C157.373 77.3318 162.738 79.1466 165.104 83.1187C167.844 87.719 178.774 89.4546 182.989 93.0723C188.477 97.7828 192.538 96.4773 196.095 103.681C198.58 108.713 194.318 115.468 188.382 115.468C179.48 115.468 181.505 107.426 188.177 105.121C195.028 102.756 199.142 101.323 206.881 101.323C214.157 101.323 216.26 108.484 220.397 99.5552C225.917 87.6405 244.212 104.859 252.276 104.859C256.859 104.859 263.103 100.774 267.771 102.764C270.372 103.873 278.774 110.7 279.444 107.806C280.14 104.804 283.937 94.4355 289.206 99.4897C298.002 107.927 290.188 111.932 279.444 111.932C266.754 111.932 273.803 99.5976 279.103 94.5129C283.578 90.2196 288.885 79.1819 296.305 78.9277C303.366 78.6858 315.682 81.8187 320.538 77.1596C323.072 74.7294 325.016 71.3843 326.614 68.3192C327.308 66.9881 327.024 65.372 327.979 64.1937C329.064 62.8555 331.042 62.6224 331.938 61.2469C335.258 56.1524 343.595 57.798 345.727 50.6385C346.929 46.6054 351.088 37.6726 356.24 37.6726C364.454 37.6726 370.554 39.8994 373.715 47.1023C375.083 50.2188 375.088 61.2338 373.374 64.1937C367.712 73.9696 372.082 89.7824 375.49 99.2278C378.734 108.219 371.286 123.109 360.472 123.719C355.544 123.997 322.25 129.196 330.983 116.385C333.992 111.969 349.414 111.161 349.414 118.415C349.414 126.513 349.636 131.102 343.543 136.947C337.202 143.029 334.291 141.4 326.068 141.4C320.077 141.4 313.601 141.495 308.251 144.346C304.339 146.431 296.107 148.235 291.663 148.472C289.168 148.605 287.998 150.697 285.52 150.829C283.05 150.961 280.008 152.593 277.601 153.252C266.678 156.246 268.317 169.505 268.317 177.94C268.317 187.865 273.564 196.174 283.335 199.419C290.516 201.803 297.878 204.851 304.497 198.502C308.301 194.853 310.094 189.554 310.094 184.357C310.094 177.764 311.879 169.931 306.408 164.974C301.045 160.115 292.946 158.533 286.134 161.438C274.215 166.52 279.154 177.675 285.793 184.75C288.317 187.44 292.892 192.375 292.892 185.602C292.892 180.693 291.228 175.271 288.933 170.868C287.426 167.977 286.464 165.538 283.472 163.795C281.586 162.697 269.833 158.37 268.317 160.914C265.216 166.12 262.417 171.136 259.034 176.237C256.609 179.892 256.03 182.552 256.03 186.78C256.03 189.853 258.397 193.23 256.986 196.275C255.521 199.438 253.308 206.432 250.501 208.586C248.001 210.505 248.062 212.123 244.357 212.123C241.51 212.123 237.765 209.1 237.599 206.229C237.325 201.494 245.822 192.626 246.2 199.157C246.373 202.139 247.793 203.522 244.971 206.229C242.099 208.985 238.374 204.09 235.824 202.693C233.375 201.35 234.1 199.157 229.681 199.157C228.049 199.157 223.13 199.958 221.899 198.895C220.119 197.358 216.17 192.366 215.482 197.978C215.209 200.202 210.378 201.202 208.792 199.681C205.216 196.25 213.024 190.753 213.024 186.78C213.024 181.793 213.736 177.703 209.611 174.142C206.007 171.03 199.368 168.959 195.208 166.742C186.193 161.938 168.843 166.809 166.401 177.35C164.883 183.904 170.93 188.379 176.163 191.168C178.826 192.587 181.829 195.502 185.037 195.621C188.685 195.755 191.698 194.442 195.208 194.442C202.284 194.442 204.95 184.55 206.608 179.38C208.067 174.831 206.74 168.788 205.72 164.385C204.49 159.072 201.679 158.832 196.095 156.985C187.806 154.243 182.367 162.532 181.146 170.147C179.864 178.142 182.621 183.082 190.634 185.929C198.065 188.569 198.28 182.53 198.28 176.237C198.28 169.537 197.051 162.983 197.051 156.199C197.051 149.314 189.471 142.379 184.764 137.863C178.152 131.521 171.421 125.196 165.582 118.349C162.089 114.253 156.834 111.731 153.431 107.741C150.19 103.94 147.533 99.6927 144.216 95.6916C137.891 88.065 131.196 82.3103 121.552 78.6657C114.996 76.1882 103.439 72.62 96.2951 76.0464C92.358 77.9348 82.7368 85.1189 81.2772 88.6193C79.9249 91.8626 76.3942 92.9872 75.1336 96.3465C74.1097 99.0749 72.4756 101.44 71.6522 104.205C70.2982 108.751 69.2254 113.807 72.9492 117.825C88.2347 134.322 90.6616 97.2546 77.8641 96.6084C65.9687 96.0078 49.6033 101.677 49.6033 114.879C49.6033 127.031 47.1458 138.216 47.1458 150.24C47.1458 153.279 48.3746 146.58 48.3746 145.525C48.3746 142.422 50.0682 139.71 51.1051 136.947C54.8049 127.088 54.6615 116.927 59.1601 107.217C61.0311 103.179 63.3416 96.6265 68.6486 95.4952C74.5713 94.2326 90.0564 98.5615 92.3358 105.121C93.5795 108.701 91.8672 114.346 89.1957 116.909C86.8955 119.115 78.8662 116.803 77.1815 114.158C70.116 103.067 70.0254 92.0632 79.0928 82.3983C87.1253 73.8366 96.6614 73.156 107.354 79.1896C117.116 84.6984 127.238 91.2648 137.458 95.9536C153.522 103.324 168.899 116.854 176.777 131.97C183.254 144.397 193.426 148.755 203.809 156.723C208.457 160.29 207.87 167.028 209.065 172.046C209.853 175.354 209.742 178.797 210.499 182.065C211.187 185.035 212.838 186.501 213.024 189.727C213.178 192.381 219.398 194.662 221.353 196.537C224.53 199.586 228.154 200.914 232.616 201.449C234.763 201.706 250.858 202.412 245.927 208.325C241.723 213.366 236.763 212.123 230.295 212.123C225.473 212.123 220.627 211.508 215.892 210.682C210.398 209.724 204.954 210.446 199.508 209.7C186.433 207.908 170.341 222.382 184.149 232.685C189.624 236.77 201.632 237.758 208.11 238.054C214.683 238.355 221.02 239.233 227.769 239.233C231.358 239.233 230.113 236.32 230.227 233.601C230.358 230.464 233.507 229.995 235.142 228.035C238.277 224.276 249.553 233.523 244.698 236.876C240.178 239.998 225.197 239.583 229.681 230.982C233.611 223.442 243.087 223.144 245.04 231.571C245.602 233.997 250.422 230.312 251.115 229.149C253.303 225.476 257.671 225.071 261.628 224.172C266.4 223.087 271.982 223.5 275.963 220.636C278.031 219.147 282.364 219.195 284.905 219.195C289.96 219.195 293.592 225.345 291.39 229.803C286.942 238.811 278.382 240.081 268.727 238.316C264.814 237.601 260.255 237.002 256.303 236.876C251.508 236.722 245.73 233.949 254.119 236.876C264.789 240.598 256.03 244.134 256.03 249.842C256.03 252.714 262.55 255.022 264.631 256.914C269.067 260.945 267.225 260.77 267.225 265.754C267.225 274.053 262.046 274.008 255.416 277.541C250.067 280.392 234.779 279.155 228.998 276.69C222.437 273.893 220.346 271.214 219.1 264.641C218.068 259.196 215.31 255.41 218.212 249.842C222.181 242.228 227.816 242.62 216.711 238.054" stroke="black" stroke-width="35" stroke-linecap="round"/>
</svg>
