<svg width="1391" height="1844" viewBox="0 0 1391 1844" fill="none" xmlns="http://www.w3.org/2000/svg">
<path d="M1327.8 78.5284C1354.27 106.153 1373 123.103 1373 166.957C1373 194.117 1373.54 210.533 1356.05 231.067C1344.56 244.546 1334.39 258.947 1323.19 272.088C1306.52 291.653 1223.23 301.311 1236.56 254.402C1252.68 197.625 1286.36 238.917 1286.36 279.457C1286.36 348.089 1251.66 375.531 1207.05 414.801C1185.24 434.003 1164.26 452.169 1143.22 471.051C1127.81 484.883 1111.23 505.828 1094.25 515.265C1076.93 524.898 1053.01 532.305 1035.66 520.669C1021.35 511.072 1016.94 475.088 1037.75 472.034C1072.36 466.955 1110.15 494.931 1144.69 507.405C1180.74 520.426 1212.19 538.355 1250.58 538.355C1259 538.355 1250.01 548.615 1246.81 551.619C1239.43 558.545 1230.83 559.467 1222.33 563.901C1208.83 570.939 1156.5 572.134 1198.05 589.692C1222.5 600.023 1246.53 606.929 1271.29 592.394C1276.58 589.292 1294.44 585.713 1281.76 595.833C1273.17 602.689 1260.8 604.676 1250.79 604.676C1227.23 604.676 1162.06 580.811 1162.06 626.783C1162.06 650.425 1182.85 661.562 1199.93 666.576C1215.01 670.998 1229.3 670.997 1244.72 670.997C1250.98 670.997 1267.35 660.398 1262.92 665.593C1245.06 686.559 1263.14 703.585 1282.59 706.123C1290.73 707.184 1316.93 711.184 1321.1 701.947C1324.39 694.652 1326.3 675.91 1314.61 675.91C1296.83 675.91 1295.51 700.429 1285.52 709.807C1280.63 714.406 1266.08 710.393 1259.99 710.79C1249.42 711.479 1243.99 721.845 1239.07 730.932C1229.15 749.229 1214.48 769.988 1223.16 790.375C1228.85 803.722 1233.63 816.912 1233.63 832.133C1233.63 850.314 1229.78 847.854 1215.63 847.854C1193.45 847.854 1172.15 848.442 1150.76 852.029C1134.17 854.811 1128.81 849.318 1118.95 867.504C1114.74 875.261 1115.24 888.897 1121.46 894.033C1144.46 913.032 1191.58 931.845 1216.88 907.543C1245.11 880.437 1228.94 915.866 1211.86 922.035C1194.6 928.271 1159.88 910.681 1145.32 900.91C1137.51 895.675 1137.28 896.828 1145.11 900.91C1157.79 907.53 1163.05 917.732 1168.75 931.86C1181.35 963.082 1130.31 947.794 1122.92 945.125C1118.21 943.423 1107.47 920.136 1110.16 914.175C1116.35 900.445 1147.84 920.989 1156.2 922.772C1181.58 928.189 1153 957.764 1138.62 958.389C1106.47 959.787 1077.12 965.851 1050.94 987.128C1044.64 992.245 1022.1 999.924 1021.22 1009.23C1019.55 1026.91 1071.62 1020.02 1080.02 1012.43C1090.07 1003.36 1117.78 994.58 1097.6 1016.11C1088.7 1025.62 1078.92 1033.86 1070.4 1043.87C1066.43 1048.53 1081.16 1039.92 1086.72 1038.96C1094.99 1037.52 1135.36 1036.47 1128.99 1038.96C1121.09 1042.05 1080.54 1054.68 1108.48 1049.03C1157.15 1039.18 1148.03 1036.68 1198.89 1037.97C1204.15 1038.11 1230.73 1038.91 1230.7 1038.96C1224.28 1046.49 1216.41 1051.24 1207.05 1051.24C1189.89 1051.24 1176.66 1056.29 1160.38 1061.06C1149.54 1064.24 1131.64 1059.98 1122.3 1066.96C1117.83 1070.29 1112.69 1076.15 1107.44 1077.52C1105.99 1077.9 1097.4 1076.61 1098.86 1080.47C1103.66 1093.16 1159.75 1103.96 1126.48 1109.7C1116.7 1111.39 1096.74 1111.81 1088.39 1118.54C1083.65 1122.37 1118.69 1134.74 1120.62 1135.25C1121.34 1135.43 1150.31 1142.95 1138.62 1147.53C1130.14 1150.84 1102.9 1148.51 1111.83 1148.51C1122.48 1148.51 1172.72 1159.35 1159.13 1165.95C1145.92 1172.36 1133.36 1176.99 1120.62 1184.86C1110.14 1191.34 1098.02 1198.47 1098.02 1212.87C1098.02 1231.23 1098.68 1241.74 1082.12 1249.22C1076.96 1251.55 1065.66 1253.78 1063.28 1259.04C1057.73 1271.35 1056.81 1274.8 1047.17 1283.61C1033.48 1296.11 1019.64 1294.04 1003.85 1302.28C989.978 1309.51 967.676 1313.41 982.924 1336.42C995.682 1355.67 1024.06 1363.41 1043.19 1369.83C1049.17 1371.83 1054.56 1378.42 1061.82 1378.42C1072.07 1378.42 1041.31 1378.42 1031.06 1378.42C1005.99 1378.42 986.681 1377.42 964.09 1389.48C955.346 1394.14 939.943 1393.78 930.189 1395.86C917.105 1398.65 897.602 1397.91 884.568 1395.13C878.426 1393.81 860.1 1390.88 857.154 1402.99C855.775 1408.65 860.686 1429.14 859.875 1430.5C855.148 1438.42 858.752 1449.5 852.341 1457.03C846.775 1463.56 838.265 1466.67 832.461 1473.48C811.091 1498.57 793.98 1524.83 777.842 1554.3C754.628 1596.68 734.727 1646.95 728.664 1696.76C724.497 1731.01 709.482 1785.93 730.966 1818.35C750.8 1848.28 777.513 1781.92 780.772 1764.07C787.223 1728.73 786.404 1688.04 781.4 1652.8C778.323 1631.13 754.209 1614.08 737.244 1612.76C712.626 1610.83 688.457 1588.18 665.047 1579.6C646.567 1572.82 634.511 1590.42 615.869 1568.54C594.089 1542.98 580.69 1576 559.367 1577.39C533.346 1579.08 444.528 1565.27 442.596 1519.91C441.957 1504.9 440.731 1467.46 448.455 1455.8C461.482 1436.14 467.6 1423.58 474.614 1400.53C495.294 1332.56 430.797 1331.09 395.511 1354.1C384.921 1361.01 356.185 1347.85 364.33 1329.79C369.615 1318.07 371.692 1323.23 365.376 1309.89C361.263 1301.2 356.031 1297.66 348.426 1293.43C335.453 1286.22 307.198 1296.62 303.015 1274.52C299.055 1253.61 279.183 1248.37 265.556 1240.38C248.373 1230.29 231.767 1221.45 214.913 1210.65C197.689 1199.63 197.632 1185.7 185.616 1171.6C170.846 1154.26 158.731 1148.02 139.158 1139.67C136.014 1138.32 107.671 1124.08 113.209 1122.23C122.393 1119.15 143.474 1125.35 152.552 1129.84C177.011 1141.93 241.804 1121.19 214.495 1079.98C206.711 1068.23 197.753 1061.32 197.753 1044.61C197.753 1027.03 212.824 1030.39 222.447 1020.29C233.705 1008.47 253.089 1007.02 267.439 1007.02C285.59 1007.02 300.919 1015.87 318.291 1015.87C338.999 1015.87 357.785 1011.45 378.56 1011.45C403.602 1011.45 428.645 1011.45 453.687 1011.45C470.354 1011.45 495.501 1015.83 488.635 985.9C484.527 967.989 460.275 952.847 444.689 963.301C437.093 968.396 436.854 995.863 442.596 1002.6C448.454 1009.48 465.595 1018.58 474.405 1015.62C496.259 1008.29 462.866 985.502 453.896 984.917C437.359 983.839 422.009 971.653 404.928 971.653C361.162 971.653 319.106 958.389 274.973 958.389C265.525 958.389 254.055 960.547 244.838 958.143C238.149 956.398 224.235 944.559 235.421 937.264C248.675 928.621 287.738 928.097 287.738 953.722C287.738 977.008 240.037 1001.86 239.188 984.917C237.464 950.517 305.455 972.503 319.128 959.371C334.882 944.242 343.38 941.929 348.216 916.385C352.978 891.236 327.493 875.843 319.128 859.153C299.53 820.047 246.581 796.699 216.797 770.479C208.829 763.465 198.76 753.008 188.545 750.828C179.513 748.901 160.319 747.265 153.389 740.757C134.463 722.985 90.2501 739.254 109.442 774.655C119.487 793.182 157.987 795.512 171.386 781.532C185.877 766.413 198.579 752.735 216.587 742.722C230.855 734.789 325.972 737.964 295.69 706.368C277.86 687.765 246.722 702.82 246.722 666.576C246.722 649.186 250.369 606.531 231.655 600.255C213.783 594.261 193.926 583.671 175.152 582.569C146.964 580.915 119.837 582.252 91.864 578.148C75.0521 575.681 57.6117 575.124 41.0121 571.516C34.3958 570.077 5.21808 569.305 24.4799 569.305C39.903 569.305 59.8442 572.092 74.9134 575.937C93.7122 580.734 110.518 573.726 129.114 573.726C144.816 573.726 168.23 569.803 182.686 563.901C193.176 559.618 204.693 559.283 214.913 553.83C229.333 546.136 246.722 532.449 246.722 511.826C246.722 491.056 264.598 485.785 278.74 489.474C287.463 491.749 296.194 502.233 298.62 512.809C302.549 529.937 271.282 536.586 261.789 540.566C253.045 544.231 244.738 542.685 237.305 535.899C223.196 523.018 254.641 515.176 263.463 512.809C291.03 505.413 306.991 524.157 306.991 483.087C306.991 467.928 284.844 436.618 288.994 423.398C296.181 400.499 307.781 385.55 306.991 360.516C305.679 318.94 270.479 275.008 287.32 233.278C298.647 205.209 297.772 177.217 319.965 155.903C329.016 147.211 337.701 138.066 346.752 129.375C355.008 121.445 366.512 107.336 374.793 101.618C390.595 90.7075 401.161 59.7625 401.161 38.9814C401.161 15.9829 353.422 8.34636 352.192 34.3144C351.136 56.6454 376.74 82.058 387.977 98.1791C404 121.166 402.509 148.582 414.345 173.589C422.399 190.605 430.976 208.88 437.992 224.435C445.263 240.556 461.71 247.363 468.964 262.263C477.364 279.519 510.871 286.029 523.792 299.599C540.616 317.268 553.067 312.371 563.971 339.392C571.588 358.267 558.522 383.606 540.324 383.606C513.034 383.606 519.242 353.439 539.696 344.796C560.697 335.921 573.312 330.549 597.035 330.549C619.341 330.549 625.788 357.409 638.47 323.917C655.393 279.224 711.479 343.813 736.198 343.813C750.25 343.813 769.392 328.488 783.702 335.953C791.673 340.111 817.432 365.72 819.486 354.866C821.618 343.606 833.26 304.712 849.411 323.671C876.376 355.321 852.423 370.341 819.486 370.341C780.583 370.341 802.191 324.075 818.44 305.003C832.16 288.898 848.428 247.496 871.175 246.542C892.821 245.635 930.576 257.386 945.465 239.91C953.231 230.794 959.192 218.247 964.09 206.749C966.217 201.756 965.347 195.694 968.275 191.274C971.601 186.255 977.666 185.38 980.413 180.221C990.588 161.111 1016.15 167.284 1022.68 140.428C1026.37 125.3 1039.12 91.7927 1054.91 91.7927C1080.09 91.7927 1098.79 100.145 1108.48 127.164C1112.68 138.854 1112.69 180.171 1107.44 191.274C1090.08 227.944 1103.48 287.259 1113.93 322.688C1123.87 356.414 1101.04 412.267 1067.89 414.556C1052.78 415.599 950.713 435.102 977.483 387.045C986.71 370.48 1033.99 367.45 1033.99 394.659C1033.99 425.038 1034.67 442.25 1015.99 464.174C996.55 486.989 987.626 480.877 962.416 480.877C944.052 480.877 924.198 481.235 907.797 491.93C895.805 499.75 870.568 506.517 856.945 507.405C849.295 507.904 845.709 515.752 838.111 516.248C830.54 516.742 821.213 522.862 813.836 525.336C780.351 536.566 785.376 586.3 785.376 617.94C785.376 655.171 801.461 686.338 831.414 698.508C853.43 707.453 875.997 718.886 896.287 695.069C907.95 681.38 913.447 661.506 913.447 642.012C913.447 617.282 918.92 587.899 902.147 569.305C885.706 551.079 860.878 545.146 839.994 556.041C803.454 575.103 818.598 616.945 838.948 643.486C846.686 653.578 860.712 672.086 860.712 646.679C860.712 628.268 855.61 607.929 848.574 591.412C843.956 580.571 841.006 571.421 831.833 564.883C826.052 560.764 790.021 544.534 785.376 554.076C775.869 573.604 767.288 592.421 756.915 611.554C749.484 625.262 747.708 635.242 747.708 651.101C747.708 662.626 754.963 675.293 750.637 686.718C746.146 698.579 739.361 724.817 730.757 732.897C723.094 740.093 723.281 746.161 711.923 746.161C703.196 746.161 691.715 734.822 691.205 724.054C690.365 706.291 716.414 673.029 717.573 697.526C718.103 708.713 722.456 713.901 713.806 724.054C705.001 734.39 693.58 716.032 685.764 710.79C678.255 705.753 680.477 697.526 666.93 697.526C661.929 697.526 646.849 700.531 643.074 696.543C637.617 690.778 625.513 672.054 623.403 693.104C622.567 701.446 607.757 705.198 602.895 699.491C591.932 686.622 615.869 666.003 615.869 651.101C615.869 632.393 618.051 617.052 605.406 603.694C594.357 592.021 574.005 584.254 561.25 575.937C533.615 557.916 480.425 576.19 472.94 615.73C468.286 640.312 486.825 657.099 502.865 667.558C511.029 672.882 520.237 683.818 530.07 684.261C541.254 684.766 550.489 679.84 561.25 679.84C582.942 679.84 591.115 642.735 596.198 623.344C600.672 606.278 596.605 583.612 593.478 567.094C589.705 547.167 581.088 546.266 563.971 539.338C538.558 529.052 521.885 560.145 518.141 588.71C514.211 618.7 522.664 637.228 547.23 647.908C570.008 657.81 570.667 635.159 570.667 611.554C570.667 586.421 566.901 561.837 566.901 536.39C566.901 510.562 543.664 484.552 529.233 467.612C508.964 443.821 488.33 420.095 470.428 394.414C459.719 379.05 443.612 369.588 433.179 354.621C423.243 340.366 415.099 324.432 404.928 309.424C385.541 280.816 365.016 259.23 335.451 245.559C315.353 236.266 279.921 222.882 258.022 235.734C245.953 242.818 216.458 269.765 211.983 282.896C207.838 295.061 197.014 299.28 193.149 311.881C190.01 322.115 185.001 330.986 182.477 341.357C178.326 358.409 175.037 377.374 186.453 392.448C233.312 454.326 240.752 315.287 201.52 312.863C165.053 310.61 114.883 331.874 114.883 381.395C114.883 426.981 107.35 468.936 107.35 514.037C107.35 525.438 111.117 500.307 111.117 496.352C111.117 484.71 116.308 474.538 119.487 464.174C130.83 427.192 130.39 389.078 144.181 352.656C149.917 337.508 157 312.931 173.269 308.687C191.426 303.951 238.897 320.189 245.885 344.796C249.697 358.221 244.448 379.397 236.258 389.01C229.207 397.287 204.592 388.613 199.427 378.693C177.767 337.09 177.49 295.814 205.287 259.561C229.911 227.445 259.145 224.892 291.923 247.525C321.851 268.188 352.88 292.819 384.21 310.407C433.459 338.054 480.596 388.807 504.748 445.505C524.604 492.118 555.789 508.467 587.618 538.355C601.868 551.736 600.066 577.011 603.732 595.833C606.148 608.242 605.805 621.156 608.126 633.415C610.235 644.555 615.296 650.053 615.869 662.154C616.34 672.108 635.407 680.666 641.4 687.7C651.142 699.135 662.25 704.116 675.929 706.123C682.512 707.089 731.852 709.736 716.736 731.914C703.847 750.826 688.643 746.161 668.814 746.161C654.033 746.161 639.176 743.856 624.658 740.757C607.817 737.163 591.128 739.872 574.434 737.073C534.35 730.351 485.018 784.645 527.349 823.29C544.133 838.613 580.945 842.322 600.802 843.432C620.953 844.558 640.38 847.854 661.071 847.854C672.073 847.854 668.257 836.925 668.605 826.729C669.006 814.961 678.662 813.201 683.672 805.85C693.283 791.748 727.851 826.434 712.969 839.011C699.111 850.723 653.187 849.168 666.93 816.904C678.978 788.621 708.03 787.501 714.016 819.114C715.738 828.212 730.516 814.389 732.64 810.026C739.346 796.252 752.738 794.73 764.868 791.358C779.497 787.291 796.609 788.837 808.814 778.094C815.155 772.511 828.437 772.69 836.228 772.69C851.723 772.69 862.856 795.76 856.108 812.482C842.473 846.27 816.231 851.033 786.631 844.415C774.635 841.733 760.66 839.485 748.545 839.011C733.845 838.436 716.132 828.034 741.848 839.011C774.559 852.973 747.708 866.237 747.708 887.646C747.708 898.42 767.694 907.079 774.075 914.175C787.673 929.295 782.027 928.639 782.027 947.335C782.027 978.466 766.149 978.295 745.824 991.549C729.426 1002.24 682.56 997.601 664.838 988.356C644.723 977.863 638.313 967.814 634.494 943.159C631.33 922.736 622.876 908.533 631.774 887.646C643.938 859.088 661.213 860.558 627.17 843.432" stroke="black" stroke-width="35" stroke-linecap="round"/>
</svg>
